#!OML:ASF E:\emotionWalksFemale\Project 1\Capture day 1\Session 1\Female1.ASF
:FULLY-SPECIFIED
:DEGREES
1667
root 7.98409 15.2827 -37.3623 9.84985 -32.6911 -1.4319
lowerback 17.5579 4.98729 -0.622495
upperback -0.690657 6.64648 1.58254
thorax -10.8764 3.21805 0.307628
lowerneck -5.91402 -0.743107 -0.79483
upperneck -2.0464 -0.966437 -6.18028
head 0.332293 -0.542693 -1.80997
rclavicle -2.06736e-014 7.95139e-016
rhumerus -2.43226 6.56887 -73.5186
rradius 31.3799
rwrist 22.7544
rhand 4.34309 -51.9315
rfingers 7.12502
rthumb 29.7432 -79.5649
lclavicle -2.06736e-014 7.95139e-016
lhumerus -51.9137 1.2005 74.1128
lradius 36.4314
lwrist -13.7667
lhand 14.6833 -26.3661
lfingers 7.12502
lthumb 39.5535 -1.00691
rfemur -24.4143 -0.974235 25.4169
rtibia 45.3974
rfoot -17.2716 -19.2761
rtoes -8.69359
lfemur -28.0691 -13.1848 -20.8707
ltibia 37.5942
lfoot -20.3155 7.45596
ltoes -20.8373
1668
root 7.96015 15.3202 -37.3966 9.95077 -31.4057 -1.27248
lowerback 17.4435 4.85552 -0.548438
upperback -0.784549 6.49364 1.60328
thorax -10.9065 3.14397 0.33525
lowerneck -5.82452 -1.05371 -1.12123
upperneck -1.97896 -1.36004 -6.1228
head 0.327895 -0.737121 -1.74176
rclavicle 4.59193e-014 -2.06736e-014
rhumerus -1.84715 6.98357 -72.679
rradius 32.0524
rwrist 21.4336
rhand 5.63278 -51.7442
rfingers 7.12502
rthumb 30.9733 -79.1507
lclavicle 4.59193e-014 -2.06736e-014
lhumerus -52.2644 1.33278 73.4903
lradius 36.6063
lwrist -13.5543
lhand 16.024 -25.5756
lfingers 7.12502
lthumb 40.8147 -0.600624
rfemur -24.2335 -1.57327 25.5295
rtibia 44.7966
rfoot -16.4026 -19.5824
rtoes -11.0287
lfemur -28.0273 -13.6272 -20.6354
ltibia 36.7273
lfoot -20.1556 7.2062
ltoes -24.9043
1669
root 7.93535 15.3564 -37.4214 10.1754 -30.183 -1.24965
lowerback 16.6636 4.73566 -0.146408
upperback -0.569944 6.4002 1.54195
thorax -10.1664 3.08942 0.145712
lowerneck -5.79645 -1.43305 -1.49137
upperneck -2.18314 -1.85652 -5.83597
head 0.249762 -0.975096 -1.59308
rclavicle -9.93923e-014 -1.03368e-014
rhumerus -0.884723 7.02825 -71.7813
rradius 32.4967
rwrist 20.1955
rhand 6.98327 -54.6961
rfingers 7.12502
rthumb 32.2598 -81.8496
lclavicle -9.93923e-014 -1.03368e-014
lhumerus -52.0632 1.46667 72.8349
lradius 36.863
lwrist -13.2106
lhand 17.4505 -25.0834
lfingers 7.12502
lthumb 42.1531 -0.544892
rfemur -24.0663 -1.99111 25.6893
rtibia 44.0935
rfoot -16.3134 -19.7585
rtoes -10.0128
lfemur -28.0224 -14.0094 -20.2905
ltibia 35.9176
lfoot -20.0408 7.16885
ltoes -29.2456
1670
root 7.90894 15.3856 -37.4448 10.1563 -29.011 -1.17449
lowerback 16.9061 4.70261 -0.0108211
upperback -0.762568 6.39021 1.52359
thorax -10.5012 3.07169 0.0240623
lowerneck -5.704 -1.80518 -1.77983
upperneck -1.97356 -2.32601 -5.62521
head 0.292367 -1.20966 -1.48571
rclavicle -3.91606e-014 -7.15625e-015
rhumerus -0.663618 7.06984 -70.8698
rradius 32.7636
rwrist 19.3056
rhand 7.63278 -55.0859
rfingers 7.12502
rthumb 32.8778 -82.1119
lclavicle -3.91606e-014 -7.15625e-015
lhumerus -52.5373 1.26025 72.2606
lradius 37.2394
lwrist -12.9231
lhand 18.3553 -25.0052
lfingers 7.12502
lthumb 42.9999 -0.759289
rfemur -23.5993 -2.32615 25.7655
rtibia 43.2959
rfoot -16.3126 -19.9991
rtoes -8.6422
lfemur -27.7596 -14.1368 -20.1198
ltibia 35.1875
lfoot -20.0703 7.28773
ltoes -34.2514
1671
root 7.88341 15.4104 -37.4734 10.2614 -27.7578 -1.03612
lowerback 16.942 4.64819 0.0572622
upperback -0.931838 6.33208 1.45847
thorax -10.6942 3.03616 -0.0801056
lowerneck -5.72116 -2.12254 -1.8066
upperneck -1.81958 -2.73803 -5.58103
head 0.334916 -1.41884 -1.47665
rclavicle -2.98177e-014 -1.19271e-014
rhumerus -0.379248 6.89427 -69.9819
rradius 32.9585
rwrist 18.995
rhand 9.18597 -55.5804
rfingers 7.12502
rthumb 34.3539 -82.2849
lclavicle -2.98177e-014 -1.19271e-014
lhumerus -52.8203 1.05853 71.6284
lradius 37.5188
lwrist -12.7923
lhand 19.0965 -24.6712
lfingers 7.12502
lthumb 43.6925 -0.67456
rfemur -23.2907 -2.77957 25.8522
rtibia 42.4466
rfoot -15.722 -20.63
rtoes -10.5192
lfemur -27.7153 -14.2467 -19.9564
ltibia 34.5383
lfoot -20.5851 7.11436
ltoes -38.7817
1672
root 7.85846 15.4351 -37.4991 10.3345 -26.5672 -0.986813
lowerback 16.8337 4.6498 0.2928
upperback -0.972921 6.37047 1.34358
thorax -10.6377 3.03908 -0.33754
lowerneck -5.72106 -2.47971 -1.81979
upperneck -1.80011 -3.21178 -5.3817
head 0.333594 -1.65377 -1.42031
rclavicle -3.51849e-014 1.27222e-014
rhumerus -0.0882668 6.60816 -69.1006
rradius 33.2814
rwrist 18.719
rhand 11.0619 -56.3912
rfingers 7.12502
rthumb 36.1328 -82.6749
lclavicle -3.51849e-014 1.27222e-014
lhumerus -52.8831 0.583184 71.093
lradius 37.8732
lwrist -12.3901
lhand 19.9939 -24.2015
lfingers 7.12502
lthumb 44.5294 -0.518941
rfemur -22.8777 -3.16346 26.0173
rtibia 41.5766
rfoot -15.2124 -21.1615
rtoes -11.8995
lfemur -27.6377 -14.2562 -19.7323
ltibia 33.9852
lfoot -21.4077 6.83896
ltoes -42.8995
1673
root 7.83396 15.46 -37.5354 10.419 -25.2891 -0.839992
lowerback 16.6549 4.48689 0.311353
upperback -0.982292 6.16132 1.38334
thorax -10.5471 2.9433 -0.23715
lowerneck -5.50799 -2.71077 -2.44095
upperneck -1.94555 -3.49781 -4.91501
head 0.263165 -1.78259 -1.1684
rclavicle -3.49861e-014 -3.73715e-014
rhumerus 0.420802 7.15724 -68.0893
rradius 33.6461
rwrist 18.0247
rhand 12.1167 -55.6599
rfingers 7.12502
rthumb 37.131 -81.6903
lclavicle -3.49861e-014 -3.73715e-014
lhumerus -53.1475 0.656499 70.5977
lradius 38.2977
lwrist -11.9551
lhand 20.7636 -24.0521
lfingers 7.12502
lthumb 45.2457 -0.64998
rfemur -22.5723 -3.42417 26.0887
rtibia 40.8048
rfoot -15.5302 -21.4072
rtoes -9.00266
lfemur -27.7266 -14.1457 -19.5847
ltibia 33.5399
lfoot -22.2738 6.32003
ltoes -44.9699
1674
root 7.80875 15.48 -37.5475 10.424 -24.4659 -0.765331
lowerback 16.5337 4.48762 0.379889
upperback -1.00559 6.16799 1.30716
thorax -10.487 2.9421 -0.350332
lowerneck -5.51931 -2.96859 -2.62974
upperneck -1.87419 -3.82505 -4.67094
head 0.289514 -1.94479 -1.06795
rclavicle -2.38542e-014 -3.97569e-015
rhumerus 0.615905 7.62052 -67.2045
rradius 34.0484
rwrist 17.2398
rhand 12.163 -52.4397
rfingers 7.12502
rthumb 37.1748 -78.4587
lclavicle -2.38542e-014 -3.97569e-015
lhumerus -53.3222 0.593044 69.9529
lradius 38.6064
lwrist -11.5689
lhand 21.8046 -23.7961
lfingers 7.12502
lthumb 46.2123 -0.790509
rfemur -22.1352 -3.40182 26.0983
rtibia 40.1114
rfoot -16.0805 -21.6766
rtoes -5.81309
lfemur -27.5592 -14.1163 -19.4786
ltibia 33.2161
lfoot -23.0331 6.20538
ltoes -42.5598
1675
root 7.79204 15.4899 -37.5905 10.7391 -23.0484 -0.617071
lowerback 16.2819 4.3461 0.276992
upperback -1.06747 5.97005 1.39815
thorax -10.4321 2.85991 -0.128411
lowerneck -5.47471 -3.2507 -2.71907
upperneck -2.1169 -4.21152 -4.72954
head 0.202642 -2.13136 -1.07399
rclavicle -5.36719e-015 5.56597e-015
rhumerus 0.962736 8.20875 -65.9958
rradius 34.5202
rwrist 16.276
rhand 13.3927 -56.101
rfingers 7.12502
rthumb 38.3366 -81.8079
lclavicle -5.36719e-015 5.56597e-015
lhumerus -53.1762 0.840711 69.5028
lradius 38.7578
lwrist -11.1271
lhand 23.1062 -23.4016
lfingers 7.12502
lthumb 47.4169 -0.921271
rfemur -22.2508 -3.67243 26.2296
rtibia 39.5437
rfoot -16.6419 -22.3655
rtoes -3.61594
lfemur -28.0667 -13.8936 -19.3275
ltibia 33.1022
lfoot -23.0343 6.2091
ltoes -36.8891
1676
root 7.78147 15.4952 -37.6109 10.7905 -21.9151 -0.437258
lowerback 16.078 4.20595 0.478544
upperback -1.09572 5.81455 1.32449
thorax -10.3161 2.77574 -0.266541
lowerneck -5.05882 -3.48449 -2.94994
upperneck -2.53368 -4.55024 -4.51384
head 0.0109679 -2.28145 -0.959964
rclavicle 5.14852e-014 1.82882e-014
rhumerus 1.11891 8.78514 -65.0247
rradius 35.0237
rwrist 15.2613
rhand 13.943 -56.6711
rfingers 7.12502
rthumb 38.8558 -82.2323
lclavicle 5.14852e-014 1.82882e-014
lhumerus -53.3055 0.909311 68.9042
lradius 39.0796
lwrist -10.4004
lhand 24.2991 -22.5012
lfingers 7.12502
lthumb 48.5169 -0.533237
rfemur -22.0473 -3.91048 26.2178
rtibia 38.9953
rfoot -17.1415 -22.8395
rtoes -3.38916
lfemur -28.2673 -13.611 -19.3805
ltibia 33.3203
lfoot -23.1181 7.50494
ltoes -30.8066
1677
root 7.76919 15.5044 -37.639 10.9512 -20.7831 -0.289564
lowerback 16.0012 4.12505 0.627106
upperback -0.964984 5.71673 1.19714
thorax -10.0972 2.72078 -0.450276
lowerneck -5.88647 -3.74929 -3.01913
upperneck -2.45488 -4.85287 -4.27907
head 0.174616 -2.44359 -0.90135
rclavicle 4.17448e-014 9.54166e-015
rhumerus 1.63749 8.80274 -64.07
rradius 35.4662
rwrist 14.3763
rhand 13.8568 -53.4189
rfingers 7.12502
rthumb 38.7745 -79.0032
lclavicle 4.17448e-014 9.54166e-015
lhumerus -52.821 0.910119 68.3472
lradius 39.3237
lwrist -9.7497
lhand 24.8839 -22.8835
lfingers 7.12502
lthumb 49.0545 -1.17808
rfemur -21.9852 -3.99306 26.2837
rtibia 38.4567
rfoot -17.2337 -23.6883
rtoes -6.18437
lfemur -28.6534 -13.1366 -19.3899
ltibia 33.8307
lfoot -23.2694 9.39422
ltoes -26.9261
1678
root 7.75515 15.5123 -37.6711 11.105 -19.8117 -0.311297
lowerback 15.9323 3.99715 0.783527
upperback -0.944334 5.57624 1.20874
thorax -10.0209 2.6476 -0.484563
lowerneck -5.97107 -3.87625 -3.27073
upperneck -2.61307 -5.00852 -4.11124
head 0.147817 -2.51539 -0.81147
rclavicle -1.92821e-014 -2.38542e-015
rhumerus 1.88533 9.17476 -63.1878
rradius 35.9979
rwrist 13.7063
rhand 15.0208 -54.9791
rfingers 7.12502
rthumb 39.8713 -80.2438
lclavicle -1.92821e-014 -2.38542e-015
lhumerus -52.8579 1.2103 67.7369
lradius 39.6182
lwrist -9.36614
lhand 25.0795 -22.8336
lfingers 7.12502
lthumb 49.2342 -1.21783
rfemur -21.8867 -3.93911 26.5212
rtibia 37.9427
rfoot -17.4831 -24.4898
rtoes -6.05006
lfemur -29.0244 -12.258 -19.3262
ltibia 34.7034
lfoot -23.5763 11.7015
ltoes -26.0285
1679
root 7.74277 15.5187 -37.6995 11.1212 -19.0047 -0.351501
lowerback 15.9909 3.97207 0.847036
upperback -1.08818 5.56762 1.26881
thorax -10.2143 2.63865 -0.46377
lowerneck -4.85188 -3.99257 -3.37015
upperneck -3.25741 -5.24736 -4.08143
head -0.230077 -2.6033 -0.75411
rclavicle -5.50634e-014 -7.95139e-015
rhumerus 1.58763 9.903 -62.2816
rradius 36.6569
rwrist 12.6725
rhand 14.8605 -54.8941
rfingers 7.12502
rthumb 39.7203 -80.204
lclavicle -5.50634e-014 -7.95139e-015
lhumerus -53.3897 1.30251 67.1975
lradius 39.9874
lwrist -9.08523
lhand 25.3177 -22.3998
lfingers 7.12502
lthumb 49.4527 -0.894382
rfemur -21.6044 -3.95873 26.7703
rtibia 37.38
rfoot -17.8713 -25.0048
rtoes -4.42408
lfemur -29.1526 -11.5275 -19.2763
ltibia 35.7591
lfoot -24.4811 13.9392
ltoes -23.1692
1680
root 7.73255 15.5013 -37.7274 11.1665 -18.2679 -0.415107
lowerback 16.2401 4.01672 0.939625
upperback -1.15768 5.64728 1.23045
thorax -10.4211 2.66511 -0.597578
lowerneck -4.74733 -4.16758 -3.3008
upperneck -3.47819 -5.49822 -3.99475
head -0.315155 -2.72222 -0.736364
rclavicle -2.60408e-014 2.3059e-014
rhumerus 1.45921 10.0386 -61.5081
rradius 37.2025
rwrist 12.0247
rhand 14.7006 -54.0111
rfingers 7.12502
rthumb 39.5698 -79.3654
lclavicle -2.60408e-014 2.3059e-014
lhumerus -53.452 1.20673 66.6652
lradius 40.1895
lwrist -8.83255
lhand 25.1226 -21.857
lfingers 7.12502
lthumb 49.2737 -0.261064
rfemur -21.4061 -4.00618 27.0737
rtibia 36.8327
rfoot -17.7287 -25.6287
rtoes -1.75268
lfemur -29.4419 -10.3275 -19.2365
ltibia 36.9289
lfoot -25.4865 15.0659
ltoes -16.3068
1681
root 7.72255 15.4985 -37.766 11.3061 -17.3384 -0.449376
lowerback 16.152 3.95374 0.94489
upperback -1.00721 5.56651 1.31796
thorax -10.2125 2.63342 -0.473256
lowerneck -4.87209 -4.28454 -3.47119
upperneck -3.84803 -5.65503 -3.85095
head -0.400162 -2.79086 -0.665138
rclavicle -3.93594e-014 7.95139e-016
rhumerus 1.80869 10.2093 -60.6061
rradius 37.6736
rwrist 11.108
rhand 14.1959 -54.8062
rfingers 7.12502
rthumb 39.0943 -80.2991
lclavicle -3.93594e-014 7.95139e-016
lhumerus -53.2487 1.53622 66.29
lradius 40.4498
lwrist -8.71858
lhand 24.3891 -21.8887
lfingers 7.12502
lthumb 48.5997 0.0393522
rfemur -21.353 -4.03276 27.3864
rtibia 36.2828
rfoot -17.6588 -26.6031
rtoes -1.20612
lfemur -29.8653 -9.73661 -19.0266
ltibia 37.9964
lfoot -25.8202 16.4937
ltoes -11.3877
